<svg width="207" height="158" viewBox="0 0 207 158" fill="none" xmlns="http://www.w3.org/2000/svg">
<g clip-path="url(#clip0_90_62)">
<path d="M90.4715 130.174H4.10187C3.12207 130.173 2.19632 129.844 1.52504 129.277L1.20262 129.659L1.52504 129.277C0.856393 128.713 0.501107 127.968 0.5 127.213V28.2927C0.501107 27.5379 0.856392 26.793 1.52504 26.2289C2.19626 25.6626 3.12192 25.3331 4.10162 25.3322H90.4718C91.4515 25.3331 92.3772 25.6626 93.0484 26.2289C93.7171 26.7931 94.0724 27.5381 94.0734 28.293V127.213C94.0724 127.968 93.7171 128.713 93.0484 129.277C92.3771 129.844 91.4513 130.173 90.4715 130.174Z" fill="white" stroke="#4272A3"/>
<path d="M43.3931 50.5767C43.3932 53.4337 42.3219 56.2174 40.3327 58.5295C38.3434 60.8416 35.5382 62.5635 32.3185 63.4487C32.2222 63.4745 32.126 63.5004 32.0283 63.525C31.6112 63.6333 31.1883 63.7255 30.758 63.8043C29.9795 63.9468 29.1892 64.0393 28.3941 64.0811C28.0485 64.1008 27.7009 64.1106 27.3514 64.1106C25.5454 64.1121 23.7521 63.8559 22.0474 63.3527C21.9978 63.338 21.9483 63.3232 21.9001 63.3085C19.1381 62.4669 16.7029 61.0019 14.8598 59.0731C13.0168 57.1443 11.8365 54.8258 11.4477 52.3701C11.0589 49.9144 11.4765 47.4157 12.655 45.1465C13.8334 42.8772 15.7275 40.9243 18.1308 39.5007C20.5342 38.077 23.3546 37.2372 26.2847 37.0727C29.2148 36.9082 32.1422 37.4254 34.7479 38.5679C37.3537 39.7103 39.5377 41.4342 41.0622 43.5518C42.5866 45.6693 43.3929 48.0992 43.3931 50.5768V50.5767Z" fill="white"/>
<path d="M26.967 59.5434C31.2776 59.5434 34.772 56.5953 34.772 52.9587C34.772 49.322 31.2776 46.3739 26.967 46.3739C22.6565 46.3739 19.1621 49.322 19.1621 52.9587C19.1621 56.5953 22.6565 59.5434 26.967 59.5434Z" fill="#4272A3"/>
<path d="M27.4227 56.5066L27.4308 56.2605C26.8882 56.2478 26.4098 56.2191 26.0504 55.9975C25.9485 55.9311 25.8647 55.847 25.8048 55.7509C25.7448 55.6547 25.7102 55.5488 25.7031 55.4404C25.6968 55.3741 25.7087 55.3075 25.7378 55.2457C25.767 55.184 25.8126 55.1287 25.8712 55.0842C26.007 55.0148 26.1625 54.9775 26.3213 54.9763C26.4801 54.9751 26.6364 55.0101 26.7736 55.0775L27.0149 55.1709L26.5522 52.3176L26.2632 52.351L26.6569 54.7781C26.4957 54.7277 26.3222 54.7121 26.1521 54.7327C25.982 54.7534 25.8207 54.8096 25.6829 54.8963C25.5903 54.9646 25.5176 55.05 25.4705 55.1458C25.4235 55.2417 25.4033 55.3455 25.4116 55.449C25.4202 55.5947 25.4663 55.7371 25.547 55.8662C25.6276 55.9953 25.7407 56.1079 25.8783 56.1962C26.3402 56.481 26.9404 56.4952 27.4227 56.5066Z" fill="#2F2E41"/>
<path d="M24.8341 52.5603H23.2633V52.8064H24.8341V52.5603Z" fill="#2F2E41"/>
<path d="M29.7925 52.5603H28.2216V52.8064H29.7925V52.5603Z" fill="#2F2E41"/>
<path d="M29.1845 62.1642C29.2052 62.0833 29.2159 62.0008 29.2166 61.9181C29.216 61.6083 29.0699 61.3112 28.8102 61.0922C28.5505 60.8731 28.1984 60.7498 27.8312 60.7493H25.7895C25.4222 60.7495 25.07 60.8728 24.8102 61.0919C24.5505 61.3111 24.4044 61.6082 24.4041 61.9181C24.404 62.0013 24.4147 62.0842 24.4361 62.1654C23.6654 62.3703 22.9369 62.6745 22.2764 63.0673C22.148 63.1423 22.0212 63.2235 21.9001 63.3084C21.9482 63.3232 21.9978 63.3379 22.0474 63.3527C23.7521 63.8558 25.5454 64.1121 27.3514 64.1106C27.7014 64.1106 28.0489 64.1007 28.3941 64.0811C29.1892 64.0393 29.9795 63.9468 30.758 63.8042C31.1883 63.7255 31.6112 63.6332 32.0282 63.5249C31.2031 62.9091 30.2345 62.4456 29.1845 62.1642Z" fill="#2F2E41"/>
<path d="M28.922 63.9248C28.7328 63.9366 28.5506 63.9905 28.3941 64.081C29.1892 64.0393 29.9795 63.9467 30.7581 63.8042L28.922 63.9248Z" fill="#2F2E41"/>
<path d="M34.0456 51.3945L20.4869 47.2097C20.3416 47.1649 20.2233 47.0732 20.1582 46.9548C20.093 46.8364 20.0863 46.701 20.1394 46.5784L20.1853 46.3955C21.2442 43.9534 24.754 42.4166 27.6486 43.3099L31.8209 44.5977C34.7154 45.491 35.9735 48.3827 34.9146 50.8248L34.7939 51.1014C34.7407 51.2239 34.632 51.3237 34.4917 51.3787C34.3514 51.4336 34.1909 51.4393 34.0456 51.3945Z" fill="#2F2E41"/>
<path d="M34.776 51.6267C15.8777 52.215 14.2264 50.2117 19.9846 47.0615L21.2062 45.1652L35.2062 49.4714L34.776 51.6267Z" fill="#2F2E41"/>
<path d="M31.0704 44.2973C31.1747 44.0045 30.7278 43.6323 30.0722 43.4661C29.4166 43.2998 28.8005 43.4024 28.6962 43.6952C28.5918 43.9881 29.0387 44.3603 29.6944 44.5265C30.35 44.6928 30.9661 44.5902 31.0704 44.2973Z" fill="#2F2E41"/>
<path d="M27.3514 64.4797C25.4961 64.4814 23.6538 64.2181 21.9027 63.7011L21.7505 63.6553C18.0825 62.5369 15.0035 60.3572 13.0611 57.5039C11.1187 54.6505 10.4389 51.3084 11.1425 48.0719C11.846 44.8354 13.8874 41.9143 16.9036 39.8282C19.9198 37.742 23.7152 36.626 27.6149 36.6787C31.5146 36.7313 35.2658 37.9491 38.2014 40.1156C41.1369 42.282 43.0665 45.2566 43.6471 48.5105C44.2276 51.7643 43.4214 55.0863 41.3719 57.8859C39.3223 60.6854 36.1623 62.7809 32.4538 63.7997C32.3501 63.8275 32.2526 63.8536 32.1534 63.8786C31.7392 63.9862 31.2998 64.0828 30.8508 64.1649C30.0505 64.3113 29.2382 64.4064 28.421 64.4494C28.0698 64.4695 27.7091 64.4797 27.3514 64.4797ZM27.3514 37.4119C23.6795 37.4123 20.1253 38.5051 17.314 40.498C14.5027 42.4908 12.6143 45.2562 11.981 48.3076C11.3477 51.3591 12.01 54.5012 13.8514 57.1814C15.6928 59.8616 18.5954 61.9082 22.0487 62.9612L22.1932 63.0047C23.851 63.4941 25.595 63.7432 27.3514 63.7415C27.6895 63.7415 28.0304 63.7318 28.3646 63.7128C29.1385 63.6721 29.9077 63.582 30.6656 63.4435C31.0902 63.3658 31.5055 63.2745 31.8996 63.1722C31.9972 63.1476 32.0898 63.1227 32.1825 63.0978C35.7147 62.1272 38.7206 60.1255 40.66 57.4525C42.5994 54.7794 43.345 51.6104 42.7628 48.5151C42.1806 45.4197 40.3088 42.6011 37.4839 40.5659C34.659 38.5307 31.0662 37.4123 27.3514 37.4119Z" fill="#CCCCCC"/>
<path d="M90.472 130.674H4.10139C3.01401 130.673 1.97152 130.308 1.20262 129.659C0.433728 129.011 0.00122377 128.131 0 127.214V28.2924C0.00122377 27.375 0.433728 26.4955 1.20262 25.8468C1.97152 25.1981 3.01401 24.8332 4.10139 24.8322H90.472C91.5594 24.8332 92.6019 25.1981 93.3708 25.8468C94.1397 26.4955 94.5722 27.375 94.5734 28.2924V127.214C94.5722 128.131 94.1397 129.011 93.3708 129.659C92.6019 130.308 91.5594 130.673 90.472 130.674ZM4.10139 25.2392C3.14194 25.2402 2.2221 25.5621 1.54367 26.1345C0.865232 26.7069 0.483605 27.4829 0.482517 28.2924V127.214C0.483605 128.023 0.865223 128.799 1.54366 129.372C2.22209 129.944 3.14194 130.266 4.10139 130.267H90.472C91.4315 130.266 92.3513 129.944 93.0297 129.372C93.7082 128.799 94.0898 128.023 94.0909 127.214V28.2924C94.0898 27.4829 93.7082 26.7069 93.0297 26.1345C92.3513 25.5621 91.4315 25.2402 90.472 25.2392H4.10139Z" fill="#CCCCCC"/>
<path d="M73.7517 50.524H49.3118C48.7994 50.5235 48.3082 50.3514 47.9462 50.0455C47.5841 49.7397 47.3807 49.3251 47.3807 48.8928C47.3807 48.4605 47.5841 48.0459 47.9462 47.7401C48.3082 47.4342 48.7994 47.2621 49.3118 47.2616H73.7517C74.0058 47.2613 74.2575 47.3033 74.4923 47.3852C74.7272 47.467 74.9406 47.5872 75.1204 47.7386C75.3002 47.8901 75.4428 48.0701 75.5401 48.2681C75.6375 48.4661 75.6876 48.6784 75.6876 48.8928C75.6876 49.1072 75.6375 49.3195 75.5401 49.5175C75.4428 49.7156 75.3002 49.8955 75.1204 50.047C74.9406 50.1985 74.7272 50.3186 74.4923 50.4004C74.2575 50.4823 74.0058 50.5243 73.7517 50.524Z" fill="#E6E6E6"/>
<path d="M81.7273 56.0294H49.3118C48.7994 56.0289 48.3082 55.8568 47.9462 55.5509C47.5841 55.245 47.3807 54.8305 47.3807 54.3982C47.3807 53.9659 47.5841 53.5513 47.9462 53.2455C48.3082 52.9396 48.7994 52.7675 49.3118 52.767H81.7273C82.2396 52.7675 82.7308 52.9396 83.0929 53.2455C83.455 53.5513 83.6583 53.9659 83.6583 54.3982C83.6583 54.8305 83.455 55.245 83.0929 55.5509C82.7308 55.8568 82.2396 56.0289 81.7273 56.0294Z" fill="#E6E6E6"/>
<path d="M73.7161 77.1446H12.8461C12.592 77.1449 12.3403 77.1029 12.1055 77.021C11.8706 76.9392 11.6572 76.8191 11.4774 76.6676C11.2976 76.5161 11.155 76.3362 11.0577 76.1381C10.9603 75.9401 10.9103 75.7278 10.9103 75.5134C10.9103 75.299 10.9603 75.0867 11.0577 74.8887C11.155 74.6907 11.2976 74.5108 11.4774 74.3593C11.6572 74.2078 11.8706 74.0876 12.1055 74.0058C12.3403 73.9239 12.592 73.8819 12.8461 73.8822H73.7161C74.2285 73.8827 74.7197 74.0548 75.0817 74.3607C75.4438 74.6665 75.6472 75.0811 75.6472 75.5134C75.6472 75.9457 75.4438 76.3603 75.0817 76.6661C74.7197 76.972 74.2285 77.1441 73.7161 77.1446Z" fill="#E6E6E6"/>
<path d="M81.6917 82.6499H12.8461C12.592 82.6501 12.3403 82.6081 12.1055 82.5263C11.8706 82.4444 11.6572 82.3243 11.4774 82.1728C11.2976 82.0213 11.155 81.8414 11.0577 81.6434C10.9603 81.4453 10.9103 81.233 10.9103 81.0187C10.9103 80.8043 10.9603 80.592 11.0577 80.394C11.155 80.1959 11.2976 80.016 11.4774 79.8645C11.6572 79.713 11.8706 79.5929 12.1055 79.511C12.3403 79.4292 12.592 79.3872 12.8461 79.3875H81.6917C81.9458 79.3872 82.1975 79.4292 82.4323 79.511C82.6672 79.5929 82.8806 79.713 83.0604 79.8645C83.2402 80.016 83.3828 80.1959 83.4802 80.394C83.5775 80.592 83.6276 80.8043 83.6276 81.0187C83.6276 81.233 83.5775 81.4453 83.4802 81.6434C83.3828 81.8414 83.2402 82.0213 83.0604 82.1728C82.8806 82.3243 82.6672 82.4444 82.4323 82.5263C82.1975 82.6081 81.9458 82.6501 81.6917 82.6499Z" fill="#E6E6E6"/>
<path d="M73.7161 95.3033H12.8461C12.3333 95.3033 11.8416 95.1314 11.479 94.8255C11.1164 94.5196 10.9127 94.1047 10.9127 93.6721C10.9127 93.2395 11.1164 92.8246 11.479 92.5187C11.8416 92.2128 12.3333 92.0409 12.8461 92.0409H73.7161C74.2289 92.0409 74.7207 92.2128 75.0833 92.5187C75.4459 92.8246 75.6496 93.2395 75.6496 93.6721C75.6496 94.1047 75.4459 94.5196 75.0833 94.8255C74.7207 95.1314 74.2289 95.3033 73.7161 95.3033Z" fill="#E6E6E6"/>
<path d="M81.6917 100.809H12.8461C12.3333 100.809 11.8416 100.637 11.479 100.331C11.1164 100.025 10.9127 99.61 10.9127 99.1773C10.9127 98.7447 11.1164 98.3298 11.479 98.0239C11.8416 97.718 12.3333 97.5461 12.8461 97.5461H81.6917C82.2045 97.5461 82.6963 97.718 83.0589 98.0239C83.4214 98.3298 83.6251 98.7447 83.6251 99.1773C83.6251 99.61 83.4214 100.025 83.0589 100.331C82.6963 100.637 82.2045 100.809 81.6917 100.809Z" fill="#E6E6E6"/>
<path d="M73.7161 113.462H12.8461C12.3333 113.462 11.8416 113.29 11.479 112.984C11.1164 112.678 10.9127 112.263 10.9127 111.831C10.9127 111.398 11.1164 110.983 11.479 110.677C11.8416 110.371 12.3333 110.2 12.8461 110.2H73.7161C74.2289 110.2 74.7207 110.371 75.0833 110.677C75.4459 110.983 75.6496 111.398 75.6496 111.831C75.6496 112.263 75.4459 112.678 75.0833 112.984C74.7207 113.29 74.2289 113.462 73.7161 113.462Z" fill="#E6E6E6"/>
<path d="M81.6917 118.967H12.8461C12.3333 118.967 11.8416 118.795 11.479 118.489C11.1164 118.184 10.9127 117.769 10.9127 117.336C10.9127 116.903 11.1164 116.489 11.479 116.183C11.8416 115.877 12.3333 115.705 12.8461 115.705H81.6917C82.2045 115.705 82.6963 115.877 83.0589 116.183C83.4214 116.489 83.6251 116.903 83.6251 117.336C83.6251 117.769 83.4214 118.184 83.0589 118.489C82.6963 118.795 82.2045 118.967 81.6917 118.967Z" fill="#E6E6E6"/>
<path d="M202.898 105.342L116.528 105.342C115.549 105.341 114.623 105.011 113.952 104.445C113.283 103.881 112.928 103.136 112.927 102.381C112.927 102.381 112.927 102.381 112.927 102.381L112.926 3.46062C112.928 2.70577 113.283 1.96095 113.952 1.39684C114.623 0.83055 115.548 0.501043 116.528 0.500057C116.528 0.500057 116.528 0.500057 116.528 0.500057L202.898 0.5C203.878 0.500984 204.804 0.830487 205.475 1.39677C206.144 1.96097 206.499 2.70593 206.5 3.46088L206.5 102.381C206.499 103.136 206.144 103.881 205.475 104.445C204.804 105.011 203.878 105.341 202.898 105.342Z" fill="white" stroke="#4272A3"/>
<path d="M202.899 105.842L116.528 105.842C115.441 105.841 114.398 105.476 113.629 104.827C112.86 104.179 112.428 103.299 112.427 102.382L112.426 3.46027C112.428 2.54289 112.86 1.66337 113.629 1.01467C114.398 0.365982 115.44 0.00109039 116.528 5.72691e-05L202.898 0C203.986 0.00103179 205.028 0.365918 205.797 1.01461C206.566 1.6633 206.999 2.54282 207 3.46021L207 102.382C206.999 103.299 206.566 104.179 205.797 104.827C205.028 105.476 203.986 105.841 202.899 105.842ZM116.528 0.407141C115.568 0.408059 114.649 0.730024 113.97 1.3024C113.292 1.87477 112.91 2.65082 112.909 3.46027L112.909 102.382C112.91 103.191 113.292 103.967 113.97 104.54C114.649 105.112 115.569 105.434 116.528 105.435L202.899 105.435C203.858 105.434 204.778 105.112 205.456 104.539C206.135 103.967 206.516 103.191 206.517 102.382L206.517 3.46021C206.516 2.65075 206.135 1.87471 205.456 1.30234C204.778 0.729963 203.858 0.408001 202.898 0.407084L116.528 0.407141Z" fill="#CCCCCC"/>
<path d="M202.899 105.842L116.528 105.842C115.441 105.841 114.398 105.476 113.629 104.827C112.86 104.179 112.428 103.299 112.427 102.382L112.426 3.46027C112.428 2.54289 112.86 1.66337 113.629 1.01467C114.398 0.365982 115.44 0.00109039 116.528 5.72691e-05L202.898 0C203.986 0.00103179 205.028 0.365918 205.797 1.01461C206.566 1.6633 206.999 2.54282 207 3.46021L207 102.382C206.999 103.299 206.566 104.179 205.797 104.827C205.028 105.476 203.986 105.841 202.899 105.842ZM116.528 0.407141C115.568 0.408059 114.649 0.730024 113.97 1.3024C113.292 1.87477 112.91 2.65082 112.909 3.46027L112.909 102.382C112.91 103.191 113.292 103.967 113.97 104.54C114.649 105.112 115.569 105.434 116.528 105.435L202.899 105.435C203.858 105.434 204.778 105.112 205.456 104.539C206.135 103.967 206.516 103.191 206.517 102.382L206.517 3.46021C206.516 2.65075 206.135 1.87471 205.456 1.30234C204.778 0.729963 203.858 0.408001 202.898 0.407084L116.528 0.407141Z" stroke="#4272A3"/>
<path d="M155.86 25.6097C155.86 28.2864 154.919 30.9031 153.157 33.1287C151.394 35.3544 148.889 37.089 145.957 38.1134C143.026 39.1377 139.801 39.4058 136.689 38.8836C133.577 38.3613 130.719 37.0724 128.475 35.1796C126.232 33.2869 124.704 30.8754 124.085 28.25C123.466 25.6247 123.784 22.9035 124.998 20.4305C126.212 17.9575 128.268 15.8438 130.906 14.3567C133.544 12.8696 136.646 12.0758 139.818 12.0758C144.073 12.0769 148.152 13.5032 151.16 16.041C154.168 18.5789 155.859 22.0206 155.86 25.6097Z" fill="white"/>
<path d="M147.233 27.9255C147.057 36.5811 131.797 36.5798 131.623 27.9252C131.798 19.2698 147.059 19.2712 147.233 27.9255Z" fill="#4272A3"/>
<path d="M139.118 30.6121L139.11 30.366C141.12 30.5924 141.553 28.4905 139.526 29.2763L139.988 26.4231L140.277 26.4565L139.884 28.8836C142.018 28.6155 141.229 30.858 139.118 30.6121Z" fill="#2F2E41"/>
<path d="M143.277 26.6659H141.706V26.912H143.277V26.6659Z" fill="#2F2E41"/>
<path d="M138.319 26.6659H136.748V26.912H138.319V26.6659Z" fill="#2F2E41"/>
<path d="M141.958 37.1321C142.264 35.3886 139.845 35.7331 138.564 35.7159C138.358 35.7165 138.154 35.7558 137.968 35.8312C137.782 35.9066 137.618 36.016 137.488 36.1516C137.359 36.2871 137.267 36.4454 137.219 36.6148C137.171 36.7842 137.168 36.9605 137.211 37.1308C136.22 37.3893 135.302 37.8164 134.514 38.3858C137.834 39.3624 141.441 39.3961 144.786 38.4817C143.97 37.8641 143.005 37.4035 141.958 37.1321Z" fill="#2F2E41"/>
<path d="M135.758 24.8111C137.205 24.1058 138.959 24.6469 140.453 24.9427C143.288 25.6779 147.263 24.7572 147.608 21.9083C147.966 19.2588 143.67 17.7821 142.297 20.4191L142.697 20.3751C138.244 14.7914 130.497 15.0032 130.548 22.6797C130.532 22.9168 130.969 22.916 130.986 22.6795C130.822 18.1559 134.37 15.0637 139.386 17.9708C140.507 18.7107 141.495 19.5832 142.319 20.5613C142.842 21.0553 142.955 18.9281 145.455 19.4853C148.207 20.3847 147.309 23.7089 144.85 24.4387C141.811 25.7485 138.52 23.2089 135.537 24.4922C135.489 24.5178 135.455 24.5581 135.442 24.6046C135.428 24.6511 135.437 24.7003 135.465 24.7416C135.494 24.783 135.541 24.8133 135.595 24.8263C135.65 24.8392 135.708 24.8338 135.758 24.8111Z" fill="#2F2E41"/>
<path d="M139.818 39.5127C135.676 39.5098 131.687 38.1895 128.647 35.8152C125.607 33.4409 123.739 30.1871 123.417 26.7027C123.094 23.2183 124.341 19.7594 126.907 17.0158C129.473 14.2722 133.171 12.4456 137.263 11.9003C141.355 11.355 145.54 12.131 148.984 14.0736C152.428 16.0161 154.877 18.9825 155.843 22.3811C156.81 25.7797 156.222 29.3608 154.198 32.41C152.173 35.4593 148.861 37.7526 144.921 38.8327C143.273 39.2848 141.551 39.5143 139.818 39.5127ZM139.818 12.4449C136.732 12.4446 133.714 13.2165 131.147 14.6631C128.58 16.1098 126.58 18.1661 125.398 20.5721C124.217 22.978 123.907 25.6256 124.51 28.1798C125.112 30.7341 126.598 33.0803 128.781 34.9218C130.964 36.7633 133.745 38.0174 136.772 38.5254C139.8 39.0333 142.938 38.7724 145.79 37.7756C148.641 36.7789 151.079 35.091 152.793 32.9254C154.508 30.7599 155.423 28.214 155.423 25.6097C155.418 22.1194 153.772 18.7732 150.847 16.3052C147.922 13.8371 143.956 12.4489 139.818 12.4449Z" fill="#CCCCCC"/>
<path d="M186.178 25.6919L161.738 25.6919C161.226 25.6919 160.734 25.52 160.371 25.2141C160.009 24.9082 159.805 24.4933 159.805 24.0607C159.805 23.628 160.009 23.2131 160.371 22.9072C160.734 22.6013 161.226 22.4295 161.738 22.4295L186.178 22.4294C186.691 22.4294 187.183 22.6013 187.545 22.9072C187.908 23.2131 188.112 23.628 188.112 24.0607C188.112 24.4933 187.908 24.9082 187.545 25.2141C187.183 25.52 186.691 25.6919 186.178 25.6919Z" fill="#E6E6E6"/>
<path d="M194.154 31.1972L161.738 31.1973C161.484 31.1975 161.233 31.1555 160.998 31.0737C160.763 30.9918 160.549 30.8717 160.37 30.7202C160.19 30.5687 160.047 30.3888 159.95 30.1908C159.853 29.9927 159.802 29.7804 159.802 29.566C159.802 29.3517 159.853 29.1394 159.95 28.9413C160.047 28.7433 160.19 28.5634 160.37 28.4119C160.549 28.2604 160.763 28.1403 160.998 28.0584C161.233 27.9766 161.484 27.9346 161.738 27.9348L194.154 27.9348C194.667 27.9348 195.158 28.1067 195.521 28.4126C195.884 28.7185 196.087 29.1334 196.087 29.566C196.087 29.9986 195.884 30.4135 195.521 30.7195C195.158 31.0254 194.667 31.1972 194.154 31.1972Z" fill="#E6E6E6"/>
<path d="M186.143 52.3125L125.273 52.3125C124.76 52.312 124.269 52.1399 123.907 51.834C123.545 51.5282 123.342 51.1136 123.342 50.6813C123.342 50.249 123.545 49.8344 123.907 49.5286C124.269 49.2227 124.76 49.0506 125.273 49.0501L186.143 49.05C186.655 49.05 187.147 49.2219 187.51 49.5278C187.872 49.8337 188.076 50.2486 188.076 50.6813C188.076 51.1139 187.872 51.5288 187.51 51.8347C187.147 52.1406 186.655 52.3125 186.143 52.3125Z" fill="#E6E6E6"/>
<path d="M194.118 57.8177L125.273 57.8178C125.019 57.818 124.767 57.776 124.532 57.6942C124.297 57.6123 124.084 57.4922 123.904 57.3407C123.724 57.1892 123.582 57.0093 123.484 56.8113C123.387 56.6132 123.337 56.4009 123.337 56.1866C123.337 55.9722 123.387 55.7599 123.484 55.5619C123.582 55.3638 123.724 55.1839 123.904 55.0324C124.084 54.8809 124.297 54.7608 124.532 54.6789C124.767 54.5971 125.019 54.5551 125.273 54.5553L194.118 54.5553C194.631 54.5553 195.123 54.7272 195.485 55.0331C195.848 55.339 196.052 55.7539 196.052 56.1865C196.052 56.6191 195.848 57.034 195.485 57.3399C195.123 57.6459 194.631 57.8177 194.118 57.8177Z" fill="#E6E6E6"/>
<path d="M186.143 70.4712L125.273 70.4712C124.76 70.4707 124.269 70.2986 123.907 69.9927C123.545 69.6869 123.342 69.2723 123.342 68.84C123.342 68.4077 123.545 67.9931 123.907 67.6873C124.269 67.3814 124.76 67.2093 125.273 67.2088L186.143 67.2087C186.655 67.2087 187.147 67.3806 187.51 67.6865C187.872 67.9924 188.076 68.4073 188.076 68.8399C188.076 69.2726 187.872 69.6875 187.51 69.9934C187.147 70.2993 186.655 70.4712 186.143 70.4712Z" fill="#E6E6E6"/>
<path d="M194.118 75.9764L125.273 75.9764C125.019 75.9767 124.767 75.9347 124.532 75.8529C124.297 75.771 124.084 75.6509 123.904 75.4994C123.724 75.3479 123.582 75.168 123.484 74.9699C123.387 74.7719 123.337 74.5596 123.337 74.3452C123.337 74.1309 123.387 73.9186 123.484 73.7205C123.582 73.5225 123.724 73.3426 123.904 73.1911C124.084 73.0396 124.297 72.9195 124.532 72.8376C124.767 72.7558 125.019 72.7138 125.273 72.714L194.118 72.714C194.631 72.714 195.123 72.8858 195.485 73.1918C195.848 73.4977 196.052 73.9126 196.052 74.3452C196.052 74.7778 195.848 75.1927 195.485 75.4986C195.123 75.8045 194.631 75.9764 194.118 75.9764Z" fill="#E6E6E6"/>
<path d="M186.143 88.6299L125.273 88.6299C124.76 88.6299 124.268 88.458 123.906 88.1521C123.543 87.8462 123.339 87.4313 123.339 86.9987C123.339 86.5661 123.543 86.1512 123.906 85.8452C124.268 85.5393 124.76 85.3675 125.273 85.3675L186.143 85.3674C186.655 85.3674 187.147 85.5393 187.51 85.8452C187.872 86.1511 188.076 86.566 188.076 86.9986C188.076 87.4313 187.872 87.8462 187.51 88.1521C187.147 88.458 186.655 88.6299 186.143 88.6299Z" fill="#E6E6E6"/>
<path d="M194.118 94.1351L125.273 94.1351C124.76 94.1351 124.268 93.9633 123.906 93.6574C123.543 93.3515 123.339 92.9366 123.339 92.5039C123.339 92.0713 123.543 91.6564 123.906 91.3505C124.268 91.0446 124.76 90.8727 125.273 90.8727L194.118 90.8727C194.631 90.8727 195.123 91.0445 195.485 91.3504C195.848 91.6564 196.052 92.0713 196.052 92.5039C196.052 92.9365 195.848 93.3514 195.485 93.6573C195.123 93.9632 194.631 94.1351 194.118 94.1351Z" fill="#E6E6E6"/>
<path d="M150.786 147.882H64.4165C63.4367 147.881 62.511 147.552 61.8397 146.985C61.1711 146.421 60.8158 145.676 60.8147 144.922V46.0008C60.8158 45.246 61.1711 44.5012 61.8397 43.9371C62.5109 43.3708 63.4366 43.0413 64.4163 43.0403H150.786C151.766 43.0413 152.692 43.3708 153.363 43.9371C154.032 44.5012 154.387 45.2462 154.388 46.0012V144.921C154.387 145.676 154.032 146.421 153.363 146.985C152.692 147.552 151.766 147.881 150.786 147.882Z" fill="white" stroke="#4272A3"/>
<path d="M71.6196 68.0067C71.6168 69.788 72.0321 71.5522 72.8416 73.1974C73.651 74.8426 74.8386 76.3363 76.3358 77.5924C76.4613 77.697 76.5896 77.8015 76.7194 77.9037C77.5012 78.5199 78.3542 79.0685 79.2657 79.5413C79.4407 79.6323 79.6157 79.7197 79.7951 79.8046C80.7168 80.2428 81.688 80.6026 82.6942 80.8786C82.8678 80.9266 83.0442 80.9722 83.2207 81.014C86.4192 81.7879 89.8234 81.7071 92.9653 80.7827C93.0266 80.7642 93.0878 80.7458 93.1476 80.7273C95.9058 79.8808 98.3358 78.4121 100.173 76.4812C102.011 74.5503 103.185 72.2312 103.568 69.7763C103.952 67.3213 103.53 64.8247 102.348 62.5582C101.166 60.2916 99.2702 58.342 96.8662 56.9215C94.4622 55.501 91.6424 54.6641 88.7137 54.5019C85.7851 54.3396 82.8597 54.8583 80.2563 56.0015C77.6528 57.1446 75.4709 58.8684 73.948 60.9851C72.4252 63.1019 71.6198 65.5305 71.6196 68.0067Z" fill="white"/>
<path d="M84.2736 74.6401C84.2814 75.6887 83.8233 76.7016 82.9897 77.4793C82.1649 78.243 80.9369 78.7495 79.6978 78.5399C78.5567 78.347 77.6295 77.5056 77.7452 76.4878C77.7644 76.2673 77.8403 76.053 77.9677 75.8599C78.0952 75.6667 78.271 75.4993 78.4829 75.3693C78.6949 75.2394 78.9379 75.15 79.195 75.1074C79.4521 75.0648 79.7171 75.07 79.9716 75.1227C81.0555 75.36 81.4874 76.6779 80.5842 77.2966C80.3674 77.445 80.0561 77.1854 80.2748 77.0356C80.4097 76.9315 80.5115 76.8005 80.5709 76.6547C80.6302 76.5088 80.6453 76.3527 80.6146 76.2007C80.584 76.0487 80.5086 75.9056 80.3954 75.7845C80.2822 75.6634 80.1348 75.5682 79.9667 75.5076C79.7684 75.454 79.5582 75.4392 79.352 75.4643C79.1459 75.4894 78.9493 75.5537 78.7769 75.6524C78.6046 75.7511 78.4612 75.8816 78.3575 76.034C78.2538 76.1863 78.1925 76.3566 78.1783 76.5319C78.1068 77.39 78.8859 78.0362 79.8414 78.1884C80.8751 78.3529 81.8999 77.9066 82.6003 77.2905C83.403 76.5752 83.846 75.6252 83.8361 74.6401C83.838 74.5923 83.8619 74.5469 83.9027 74.5136C83.9435 74.4803 83.9981 74.4617 84.0549 74.4617C84.1117 74.4617 84.1662 74.4803 84.207 74.5136C84.2478 74.5469 84.2717 74.5923 84.2736 74.6401V74.6401Z" fill="#2F2E41"/>
<path d="M88.5457 76.9866C92.8562 76.9866 96.3506 74.0386 96.3506 70.4019C96.3506 66.7652 92.8562 63.8171 88.5457 63.8171C84.2352 63.8171 80.7408 66.7652 80.7408 70.4019C80.7408 74.0386 84.2352 76.9866 88.5457 76.9866Z" fill="#4272A3"/>
<path d="M88.1464 73.2114L88.1383 72.9654C88.6809 72.9526 89.1592 72.9239 89.5187 72.7024C89.6206 72.636 89.7044 72.5518 89.7643 72.4557C89.8242 72.3596 89.8589 72.2537 89.866 72.1452C89.8723 72.0789 89.8604 72.0123 89.8313 71.9506C89.8021 71.8888 89.7565 71.8335 89.6979 71.7891C89.5621 71.7196 89.4066 71.6823 89.2478 71.6812C89.089 71.68 88.9327 71.7149 88.7955 71.7824L88.5541 71.8757L89.0169 69.0225L89.3059 69.0559L88.9122 71.4829C89.0734 71.4325 89.2469 71.4169 89.417 71.4375C89.5871 71.4582 89.7484 71.5144 89.8862 71.6012C89.9788 71.6694 90.0515 71.7548 90.0986 71.8507C90.1457 71.9466 90.1658 72.0503 90.1575 72.1539C90.1489 72.2996 90.1028 72.442 90.0221 72.571C89.9415 72.7001 89.8284 72.8128 89.6908 72.9011C89.2289 73.1858 88.6287 73.2 88.1464 73.2114Z" fill="#2F2E41"/>
<path d="M92.3058 69.2653H90.7349V69.5113H92.3058V69.2653Z" fill="#2F2E41"/>
<path d="M87.3474 69.2653H85.7766V69.5113H87.3474V69.2653Z" fill="#2F2E41"/>
<path d="M83.2207 81.0139C86.4192 81.7879 89.8234 81.7071 92.9654 80.7826C93.0266 80.7642 93.0878 80.7457 93.1477 80.7273C92.4073 80.2454 91.5699 79.8803 90.6757 79.6495C90.739 79.4603 90.738 79.2599 90.6728 79.0712C90.5843 78.832 90.4066 78.6232 90.1662 78.476C89.9258 78.3288 89.6355 78.2511 89.3384 78.2543H87.4368C87.1402 78.2509 86.8504 78.3285 86.6104 78.4755C86.3704 78.6225 86.1933 78.831 86.1053 79.07C86.0402 79.2591 86.0392 79.4599 86.1024 79.6495C85.3148 79.8529 84.5705 80.1607 83.8974 80.5612C83.7617 80.6411 83.6305 80.7248 83.5037 80.8122C83.4074 80.8774 83.3126 80.945 83.2207 81.0139Z" fill="#2F2E41"/>
<path d="M94.66 69.7033C94.66 70.8131 95.3075 71.7334 96.1489 71.8933C96.2346 71.9095 96.3222 71.9178 96.41 71.9179C97.3739 71.9179 98.16 70.925 98.16 69.7033C98.1817 69.0734 97.9436 68.4568 97.4862 67.9586C97.344 67.8134 97.169 67.6933 96.9714 67.6055C96.798 67.5292 96.6055 67.4891 96.41 67.4886C96.1414 67.4914 95.8806 67.5655 95.6647 67.7003C95.0712 68.0546 94.66 68.8187 94.66 69.7033Z" fill="#3F3D56"/>
<path d="M79.0557 69.7033C79.0557 70.658 79.534 71.4725 80.2048 71.7838C80.3885 71.8706 80.5952 71.9168 80.8057 71.9179C80.8525 71.9179 80.8993 71.9155 80.9457 71.9105C81.844 71.8207 82.5557 70.866 82.5557 69.7033C82.5557 68.7719 82.0992 67.9734 81.4546 67.6474C81.2597 67.5452 81.0352 67.4903 80.8057 67.4886C80.6102 67.4891 80.4176 67.5292 80.2442 67.6055C80.0461 67.6938 79.8707 67.8142 79.728 67.9599C79.2719 68.4581 79.0344 69.0741 79.0557 69.7033Z" fill="#3F3D56"/>
<path d="M80.314 71.5715C80.3487 71.5715 80.383 71.5645 80.4138 71.5511C80.4447 71.5377 80.4714 71.5183 80.4917 71.4945C80.5119 71.4707 80.5252 71.4432 80.5303 71.4143C80.5355 71.3853 80.5324 71.3557 80.5213 71.3279C80.1032 70.279 79.9775 69.1629 80.1538 68.0663C80.3301 66.9698 80.8038 65.9223 81.538 65.0052C82.2721 64.0882 83.2471 63.3264 84.387 62.7789C85.5269 62.2314 86.8011 61.9131 88.1106 61.8487C89.42 61.7842 90.7295 61.9754 91.9371 62.4073C93.1447 62.8392 94.2181 63.5002 95.0737 64.339C95.9293 65.1777 96.5441 66.1717 96.8704 67.2435C97.1967 68.3153 97.2256 69.4362 96.955 70.519C96.9431 70.5669 96.9543 70.6167 96.986 70.6576C97.0176 70.6986 97.0673 70.7272 97.124 70.7373C97.1807 70.7474 97.2398 70.7381 97.2884 70.7115C97.3369 70.6848 97.371 70.643 97.3831 70.5952C97.6678 69.4567 97.6375 68.2782 97.2946 67.1513C96.9517 66.0243 96.3053 64.9793 95.4058 64.0973C94.5062 63.2154 93.3778 62.5204 92.108 62.0662C90.8383 61.6121 89.4615 61.4111 88.0848 61.4789C86.708 61.5467 85.3683 61.8815 84.1698 62.4571C82.9714 63.0328 81.9464 63.8339 81.1746 64.7981C80.4028 65.7623 79.9049 66.8637 79.7197 68.0167C79.5345 69.1697 79.6669 70.3432 80.1067 71.4459C80.1214 71.4825 80.1493 71.5143 80.1864 71.5368C80.2236 71.5594 80.2682 71.5715 80.314 71.5715Z" fill="#3F3D56"/>
<path d="M92.4665 66.1356C92.596 66.3139 92.6498 66.5241 92.6191 66.7317C92.5884 66.9393 92.475 67.1319 92.2976 67.278C91.8738 67.6773 91.1982 67.7025 90.6115 67.6283C89.9531 67.5452 89.2548 67.285 88.5883 67.4603C88.0202 67.6098 87.615 68.0445 87.0248 68.1537C86.5014 68.2505 85.8755 68.1223 85.692 67.6517C85.6039 67.4255 86.0262 67.3286 86.1139 67.5535C86.2326 67.858 86.7452 67.852 87.0387 67.7677C87.5093 67.6325 87.872 67.3037 88.3345 67.1466C88.8859 67.0026 89.4762 67.004 90.0266 67.1505C90.5499 67.25 91.1522 67.3974 91.6735 67.2116C92.0593 67.0742 92.3662 66.6414 92.0887 66.3218C91.9221 66.13 92.3016 65.9457 92.4665 66.1355V66.1356Z" fill="#2F2E41"/>
<path d="M87.6613 81.9096C86.1181 81.9107 84.5824 81.7285 83.0994 81.3685C82.9251 81.3272 82.742 81.2802 82.5581 81.2293C81.5248 80.9456 80.5273 80.576 79.5805 80.1261C79.4029 80.0421 79.2246 79.9534 79.0361 79.8554C78.1 79.3696 77.2239 78.806 76.4206 78.1732C76.2881 78.0689 76.1568 77.9619 76.0284 77.8549C73.5025 75.7302 71.862 72.9713 71.3533 69.9928C70.8446 67.0143 71.4952 63.9769 73.2075 61.337C74.9197 58.697 77.6011 56.5971 80.8487 55.3527C84.0964 54.1083 87.735 53.7866 91.2179 54.4358C94.7008 55.0851 97.84 56.6703 100.164 58.9534C102.488 61.2364 103.871 64.094 104.105 67.0968C104.339 70.0996 103.413 73.0854 101.464 75.6059C99.5148 78.1263 96.6491 80.0451 93.2972 81.0741C93.237 81.0927 93.1747 81.1114 93.1125 81.1302C91.3606 81.6477 89.5175 81.9112 87.6613 81.9096ZM87.6613 54.8418C84.573 54.8419 81.5541 55.6152 78.9869 57.0636C76.4198 58.5121 74.4198 60.5707 73.2402 62.9787C72.0606 65.3867 71.7545 68.0358 72.3605 70.5907C72.9666 73.1456 74.4576 75.4913 76.6447 77.3309C76.7658 77.4318 76.8911 77.5339 77.0178 77.6337C77.7785 78.233 78.6084 78.7667 79.4949 79.2268C79.6735 79.3197 79.8415 79.4032 80.0091 79.4825C80.9059 79.9087 81.8506 80.2587 82.8294 80.5275C83.0025 80.5754 83.1737 80.6193 83.339 80.6585C86.4511 81.412 89.7635 81.3336 92.8207 80.4342L92.9975 80.3805C96.445 79.3218 99.3403 77.2722 101.175 74.5916C103.009 71.911 103.666 68.7708 103.029 65.7225C102.392 62.6743 100.502 59.9127 97.6919 57.9229C94.8816 55.9331 91.3302 54.8422 87.6614 54.8418L87.6613 54.8418Z" fill="#CCCCCC"/>
<path d="M150.787 148.382H64.4161C63.3287 148.381 62.2862 148.016 61.5173 147.367C60.7484 146.719 60.3159 145.839 60.3147 144.922V46.0005C60.3159 45.0831 60.7484 44.2036 61.5173 43.5549C62.2862 42.9062 63.3287 42.5413 64.4161 42.5403H150.787C151.874 42.5413 152.917 42.9062 153.685 43.5549C154.454 44.2036 154.887 45.0831 154.888 46.0005V144.922C154.887 145.839 154.454 146.719 153.685 147.367C152.917 148.016 151.874 148.381 150.787 148.382ZM64.4161 42.9474C63.4566 42.9483 62.5368 43.2702 61.8583 43.8426C61.1799 44.415 60.7983 45.191 60.7972 46.0005V144.922C60.7983 145.731 61.1799 146.507 61.8583 147.08C62.5368 147.652 63.4566 147.974 64.4161 147.975H150.787C151.746 147.974 152.666 147.652 153.344 147.08C154.023 146.507 154.404 145.731 154.406 144.922V46.0005C154.404 45.191 154.023 44.415 153.344 43.8426C152.666 43.2702 151.746 42.9483 150.787 42.9474H64.4161Z" fill="#3F3D56"/>
<path d="M134.066 68.2321H109.626C109.114 68.2321 108.622 68.0603 108.259 67.7544C107.897 67.4485 107.693 67.0336 107.693 66.6009C107.693 66.1683 107.897 65.7534 108.259 65.4475C108.622 65.1416 109.114 64.9697 109.626 64.9697H134.066C134.579 64.9697 135.071 65.1416 135.434 65.4475C135.796 65.7534 136 66.1683 136 66.6009C136 67.0336 135.796 67.4485 135.434 67.7544C135.071 68.0603 134.579 68.2321 134.066 68.2321Z" fill="#5FA52D"/>
<path d="M142.042 73.7375H109.626C109.114 73.7375 108.622 73.5657 108.259 73.2597C107.897 72.9538 107.693 72.5389 107.693 72.1063C107.693 71.6737 107.897 71.2588 108.259 70.9529C108.622 70.647 109.114 70.4751 109.626 70.4751H142.042C142.555 70.4751 143.047 70.647 143.409 70.9529C143.772 71.2588 143.975 71.6737 143.975 72.1063C143.975 72.5389 143.772 72.9538 143.409 73.2597C143.047 73.5657 142.555 73.7375 142.042 73.7375Z" fill="#5FA52D"/>
<path d="M134.031 94.8527H73.1608C72.648 94.8527 72.1562 94.6809 71.7936 94.375C71.431 94.0691 71.2273 93.6542 71.2273 93.2215C71.2273 92.7889 71.431 92.374 71.7936 92.0681C72.1562 91.7622 72.648 91.5903 73.1608 91.5903H134.031C134.544 91.5903 135.035 91.7622 135.398 92.0681C135.761 92.374 135.964 92.7889 135.964 93.2215C135.964 93.6542 135.761 94.0691 135.398 94.375C135.035 94.6809 134.544 94.8527 134.031 94.8527Z" fill="#CCCCCC"/>
<path d="M142.006 100.358H73.1608C72.648 100.358 72.1562 100.186 71.7936 99.8802C71.431 99.5743 71.2273 99.1594 71.2273 98.7268C71.2273 98.2942 71.431 97.8793 71.7936 97.5734C72.1562 97.2674 72.648 97.0956 73.1608 97.0956H142.006C142.519 97.0956 143.011 97.2674 143.374 97.5734C143.736 97.8793 143.94 98.2942 143.94 98.7268C143.94 99.1594 143.736 99.5743 143.374 99.8802C143.011 100.186 142.519 100.358 142.006 100.358Z" fill="#CCCCCC"/>
<path d="M134.031 113.011H73.1608C72.6484 113.011 72.1573 112.839 71.7952 112.533C71.4331 112.227 71.2297 111.813 71.2297 111.38C71.2297 110.948 71.4331 110.533 71.7952 110.228C72.1573 109.922 72.6484 109.75 73.1608 109.749H134.031C134.544 109.749 135.035 109.921 135.398 110.227C135.761 110.533 135.964 110.948 135.964 111.38C135.964 111.813 135.761 112.228 135.398 112.534C135.035 112.84 134.544 113.011 134.031 113.011Z" fill="#CCCCCC"/>
<path d="M142.006 118.517H73.1608C72.6484 118.516 72.1573 118.344 71.7952 118.038C71.4331 117.732 71.2297 117.318 71.2297 116.885C71.2297 116.453 71.4331 116.039 71.7952 115.733C72.1573 115.427 72.6484 115.255 73.1608 115.254H142.006C142.519 115.254 143.011 115.426 143.374 115.732C143.736 116.038 143.94 116.453 143.94 116.885C143.94 117.318 143.736 117.733 143.374 118.039C143.011 118.345 142.519 118.517 142.006 118.517Z" fill="#CCCCCC"/>
<path d="M134.031 131.17H73.1608C72.648 131.17 72.1562 130.998 71.7936 130.692C71.431 130.386 71.2273 129.972 71.2273 129.539C71.2273 129.106 71.431 128.691 71.7936 128.385C72.1562 128.08 72.648 127.908 73.1608 127.908H134.031C134.544 127.908 135.035 128.08 135.398 128.385C135.761 128.691 135.964 129.106 135.964 129.539C135.964 129.972 135.761 130.386 135.398 130.692C135.035 130.998 134.544 131.17 134.031 131.17Z" fill="#CCCCCC"/>
<path d="M142.006 136.675H73.1608C72.648 136.675 72.1562 136.504 71.7936 136.198C71.431 135.892 71.2273 135.477 71.2273 135.044C71.2273 134.612 71.431 134.197 71.7936 133.891C72.1562 133.585 72.648 133.413 73.1608 133.413H142.006C142.519 133.413 143.011 133.585 143.374 133.891C143.736 134.197 143.94 134.612 143.94 135.044C143.94 135.477 143.736 135.892 143.374 136.198C143.011 136.504 142.519 136.675 142.006 136.675Z" fill="#CCCCCC"/>
<path d="M149.784 125.857C147.281 125.855 144.802 126.269 142.488 127.075C140.174 127.882 138.072 129.065 136.301 130.558C134.529 132.05 133.124 133.823 132.166 135.774C131.207 137.725 130.714 139.816 130.714 141.928C130.714 144.04 131.207 146.132 132.166 148.083C133.124 150.034 134.529 151.806 136.301 153.299C138.072 154.792 140.174 155.975 142.488 156.782C144.802 157.588 147.281 158.002 149.784 158H149.784C154.831 157.993 159.668 156.296 163.233 153.283C166.798 150.27 168.801 146.186 168.801 141.928C168.801 137.671 166.798 133.587 163.233 130.574C159.668 127.561 154.831 125.864 149.784 125.857Z" fill="#5FA52D"/>
<path d="M147.977 148.603C147.475 148.604 146.987 148.467 146.586 148.213L146.561 148.197L141.323 144.816C140.833 144.499 140.513 144.031 140.432 143.515C140.352 142.999 140.518 142.477 140.893 142.064C141.268 141.651 141.823 141.38 142.435 141.312C143.046 141.243 143.665 141.383 144.155 141.699L147.549 143.894L155.567 135.069C155.753 134.864 155.985 134.693 156.249 134.564C156.514 134.434 156.806 134.351 157.109 134.317C157.412 134.283 157.72 134.3 158.015 134.367C158.31 134.433 158.587 134.548 158.829 134.705L158.829 134.705L158.83 134.706L158.78 134.764L158.831 134.706C159.321 135.023 159.641 135.491 159.722 136.007C159.802 136.523 159.637 137.045 159.262 137.459L149.831 147.835C149.612 148.074 149.332 148.267 149.011 148.4C148.69 148.533 148.337 148.602 147.979 148.601L147.977 148.603Z" fill="white"/>
</g>
<defs>
<clipPath id="clip0_90_62">
<rect width="207" height="158" fill="white"/>
</clipPath>
</defs>
</svg>
